<svg width="17" height="13" viewBox="0 0 17 13" fill="none" xmlns="http://www.w3.org/2000/svg">
<path d="M15.8166 6.06409H14.1362C13.9585 3.04264 11.4541 0.667496 8.4003 0.667496C7.41469 0.667496 6.44524 0.926015 5.60505 1.39458L5.29806 1.57231C5.1688 1.6531 5.12033 1.81468 5.20112 1.94394L5.68584 2.68718C5.76663 2.80028 5.91205 2.84875 6.04131 2.76797L6.29983 2.62255C6.94612 2.26709 7.67321 2.0732 8.4003 2.0732C10.6785 2.0732 12.5366 3.8182 12.7143 6.04793H11.0824C10.8724 6.04793 10.7431 6.27414 10.8562 6.45187L13.2152 10.0873C13.3122 10.2489 13.5545 10.2489 13.6515 10.0873L16.0105 6.45187C16.1397 6.2903 16.0266 6.06409 15.8166 6.06409Z" fill="#050C42"/>
<path d="M11.1151 10.152C11.0343 10.0389 10.8889 9.99046 10.7597 10.0713L10.5011 10.2167C9.83869 10.5721 9.14392 10.766 8.40067 10.766C6.12247 10.766 4.26436 9.00486 4.07047 6.79129H5.70237C5.91242 6.79129 6.04168 6.56508 5.92858 6.38735L3.56959 2.73576C3.47264 2.57418 3.23028 2.57418 3.13334 2.73576L0.774345 6.37119C0.661243 6.54892 0.790503 6.77513 1.00055 6.77513H2.66477C2.8425 9.78042 5.34691 12.1717 8.40067 12.1717C9.37012 12.1717 10.3396 11.9132 11.1959 11.4446L11.5029 11.2669C11.6322 11.1861 11.6806 11.0245 11.5999 10.8953L11.1151 10.152Z" fill="#050C42"/>
</svg>
