<svg width="19" height="19" viewBox="0 0 19 19" fill="none" xmlns="http://www.w3.org/2000/svg">
<path d="M0.504838 8.26857L0.536515 8.30223L0.504838 8.26857C0.435176 8.33413 0.386611 8.41953 0.36533 8.51354C0.34405 8.60754 0.351003 8.70592 0.385311 8.79586C0.419623 8.8858 0.479749 8.96324 0.557992 9.01791C0.636249 9.0726 0.728941 9.10193 0.82394 9.10194H1.94836V18.2109C1.94836 18.3379 1.9977 18.46 2.08587 18.5501C2.17406 18.6403 2.2939 18.6912 2.41908 18.6912H7.08865C7.21383 18.6912 7.33367 18.6403 7.42187 18.5501C7.51003 18.46 7.55938 18.3379 7.55938 18.2109V13.9163H10.9402V18.2109C10.9402 18.3379 10.9895 18.46 11.0777 18.5501C11.1659 18.6403 11.2857 18.6912 11.4109 18.6912H16.0805C16.2056 18.6912 16.3255 18.6403 16.4137 18.5501C16.5018 18.46 16.5512 18.3379 16.5512 18.2109V9.10194H17.7528C17.8478 9.10193 17.9405 9.0726 18.0187 9.01791C18.097 8.96324 18.1571 8.88581 18.1914 8.79586C18.2257 8.70592 18.2327 8.60754 18.2114 8.51354C18.1901 8.41953 18.1416 8.33413 18.0719 8.26857L9.60752 0.303499C9.60751 0.303498 9.60751 0.303496 9.60751 0.303495C9.52067 0.221752 9.40675 0.17622 9.28833 0.17622C9.1699 0.17622 9.05598 0.221753 8.96914 0.303495C8.96914 0.303496 8.96914 0.303498 8.96914 0.303499L0.504838 8.26857ZM16.0805 8.14133C15.9553 8.14133 15.8354 8.19219 15.7472 8.28238C15.6591 8.37253 15.6097 8.49458 15.6097 8.62164V17.7306H11.8816V13.436C11.8816 13.3089 11.8323 13.1869 11.7441 13.0967C11.6559 13.0066 11.5361 12.9557 11.4109 12.9557H7.08865C6.96347 12.9557 6.84363 13.0066 6.75543 13.0967C6.66727 13.1869 6.61792 13.3089 6.61792 13.436V17.7306H2.88981V8.62164C2.88981 8.5587 2.87769 8.49636 2.85412 8.43817C2.83054 8.37997 2.79596 8.32702 2.7523 8.28238C2.70864 8.23773 2.65675 8.20226 2.59956 8.17804C2.54238 8.15381 2.48105 8.14133 2.41908 8.14133H2.02871L9.28837 1.30995L16.548 8.14133H16.0805Z" fill="#6A6E71" stroke="#6A6E71" stroke-width="0.0924444"/>
</svg>
