<svg xmlns='http://www.w3.org/2000/svg' viewBox="0 0 19 19">
    <symbol  width="19" height="19" viewBox="0 0 19 19" fill="none">
        <path d="M1.22584 8.44138L1.19229 8.40444L9.65659 0.718128L1.22584 8.44138ZM1.22584 8.44138L1.19229 8.40444C1.12197 8.4683 1.07273 8.55171 1.05112 8.64379C1.02952 8.73588 1.03659 8.83226 1.07139 8.92029C1.10619 9.00831 1.16705 9.08381 1.24591 9.13698C1.32476 9.19015 1.41796 9.21856 1.51333 9.21857H2.63397V18.0033C2.63397 18.1279 2.68413 18.2472 2.77318 18.3351L2.8083 18.2995M1.22584 8.44138L2.8083 18.2995M2.8083 18.2995L2.77319 18.3351C2.86222 18.423 2.98284 18.4722 3.10848 18.4722H7.77804C7.90368 18.4722 8.0243 18.423 8.11333 18.3351C8.20239 18.2472 8.25255 18.1279 8.25255 18.0033V13.8644H11.6258V18.0033C11.6258 18.1279 11.6759 18.2472 11.765 18.3351C11.854 18.423 11.9747 18.4722 12.1003 18.4722H16.7699C16.8955 18.4722 17.0161 18.423 17.1051 18.3351C17.1942 18.2472 17.2444 18.1279 17.2444 18.0033V9.21857H18.4422C18.5376 9.21856 18.6308 9.19015 18.7096 9.13698C18.7885 9.08381 18.8493 9.00831 18.8841 8.92029C18.9189 8.83226 18.926 8.73588 18.9044 8.64379C18.8828 8.55171 18.8335 8.4683 18.7632 8.40444L18.7296 8.44145L18.7632 8.40444L10.2988 0.718128M2.8083 18.2995L10.2988 0.718128M10.2988 0.718128C10.2988 0.718127 10.2988 0.718125 10.2988 0.718123L10.2988 0.718128ZM16.7699 8.28079C16.6442 8.28079 16.5236 8.33003 16.4346 8.41789C16.3455 8.50577 16.2953 8.62511 16.2953 8.74968V17.5344H12.5748V13.3955C12.5748 13.271 12.5246 13.1516 12.4356 13.0638C12.3465 12.9759 12.2259 12.9267 12.1003 12.9267H7.77804C7.65241 12.9267 7.53179 12.9759 7.44275 13.0638C7.35369 13.1516 7.30354 13.271 7.30354 13.3955V17.5344H3.58298V8.74968C3.58298 8.68801 3.57067 8.62696 3.54677 8.57003C3.52287 8.51309 3.48786 8.4614 3.44377 8.41789C3.39967 8.37438 3.34737 8.3399 3.28984 8.31639C3.23232 8.29288 3.1707 8.28079 3.10848 8.28079H2.73098L9.97776 1.70017L17.2245 8.28079H16.7699Z" fill="#6A6E71" stroke="#6A6E71" stroke-width="0.1"/>
    </symbol>
    <symbol id='graph' width="16" height="19" viewBox="0 0 16 19" fill="none">
        <path d="M0.955213 5.04676H3.7301C3.84785 5.04675 3.96078 5.00139 4.04404 4.92066C4.1273 4.83992 4.17408 4.73041 4.17408 4.61623V1.25273C4.17408 1.13855 4.1273 1.02905 4.04404 0.94831C3.96078 0.867571 3.84785 0.82221 3.7301 0.822205H0.955213C0.837463 0.82221 0.724538 0.867571 0.641276 0.94831C0.558015 1.02905 0.511236 1.13855 0.51123 1.25273V4.61623C0.511236 4.73041 0.558015 4.83992 0.641276 4.92066C0.724538 5.00139 0.837463 5.04675 0.955213 5.04676ZM1.39919 1.68326H3.28612V4.1857H1.39919V1.68326Z" fill="#6A6E71"/>
        <path d="M0.954968 9.63447H12.7482C12.866 9.63446 12.9789 9.5891 13.0622 9.50836C13.1454 9.42762 13.1922 9.31812 13.1922 9.20394V5.84044C13.1922 5.72626 13.1454 5.61676 13.0622 5.53602C12.9789 5.45528 12.866 5.40992 12.7482 5.40991H0.954968C0.837219 5.40992 0.724294 5.45528 0.641032 5.53602C0.557771 5.61676 0.510992 5.72626 0.510986 5.84044V9.20394C0.510992 9.31812 0.557771 9.42762 0.641032 9.50836C0.724294 9.5891 0.837219 9.63446 0.954968 9.63447ZM1.39895 6.27097H12.3043V8.77341H1.39895V6.27097Z" fill="#6A6E71"/>
        <path d="M0.954968 14.2223H6.50474C6.62249 14.2223 6.73542 14.177 6.81868 14.0962C6.90194 14.0155 6.94872 13.906 6.94873 13.7918V10.4283C6.94872 10.3141 6.90194 10.2046 6.81868 10.1239C6.73542 10.0431 6.62249 9.99778 6.50474 9.99777H0.954968C0.837219 9.99778 0.724294 10.0431 0.641032 10.1239C0.557771 10.2046 0.510992 10.3141 0.510986 10.4283V13.7918C0.510992 13.906 0.557771 14.0155 0.641032 14.0962C0.724294 14.177 0.837219 14.2223 0.954968 14.2223ZM1.39895 10.8588H6.06076V13.3613H1.39895V10.8588Z" fill="#6A6E71"/>
        <path d="M15.6316 14.5856H0.874244C0.777904 14.5856 0.685511 14.6287 0.617387 14.7054C0.549264 14.7822 0.510991 14.8862 0.510986 14.9947V18.1908C0.510991 18.2993 0.549264 18.4034 0.617387 18.4801C0.685511 18.5568 0.777904 18.5999 0.874244 18.5999H15.6316C15.7279 18.5999 15.8203 18.5568 15.8885 18.4801C15.9566 18.4034 15.9949 18.2993 15.9949 18.1908V14.9947C15.9949 14.8862 15.9566 14.7822 15.8885 14.7054C15.8203 14.6287 15.7279 14.5856 15.6316 14.5856ZM15.2683 17.7817H1.2375V15.4038H15.2683V17.7817Z" fill="#6A6E71"/>
    </symbol>
</svg>
