<svg width="13" height="12" viewBox="0 0 13 12" fill="none" xmlns="http://www.w3.org/2000/svg">
<path d="M9.35185 11.5956L9.35183 11.5956L9.35408 11.5968C9.38774 11.6142 9.41822 11.6255 9.4516 11.6313C9.48077 11.6363 9.50895 11.6363 9.53271 11.6363L9.53636 11.6363L9.53956 11.6363C9.59375 11.6363 9.68271 11.6363 9.76548 11.5562C9.87206 11.4777 9.94259 11.3301 9.90758 11.1777L9.30403 7.59687L11.8188 5.05134C11.9399 4.96117 11.965 4.80216 11.9329 4.6693C11.8937 4.50722 11.7716 4.43152 11.6426 4.39817L11.6427 4.39756L11.6313 4.39589L8.08853 3.88044L6.54005 0.624605L6.53975 0.623975C6.50711 0.556484 6.46296 0.49901 6.40428 0.458564C6.34475 0.417536 6.27651 0.398384 6.20378 0.398384C6.03883 0.398384 5.93105 0.524434 5.87419 0.61261L5.87344 0.612127L5.86751 0.624606L4.31897 3.88057L0.829403 4.39592L0.829315 4.39533L0.818297 4.39817C0.676514 4.43482 0.568132 4.54395 0.530182 4.66164C0.489409 4.78809 0.532563 4.93824 0.635017 5.04415L0.635013 5.04416L0.635802 5.04495L3.15685 7.59687L2.5533 11.1778C2.51735 11.3341 2.59266 11.4855 2.70402 11.5623L2.70354 11.563L2.71558 11.5692C2.82167 11.6241 2.97935 11.6815 3.11329 11.5933L6.23044 9.88726L9.35185 11.5956ZM6.41487 9.12082L6.41488 9.1208L6.41272 9.11968C6.37906 9.10228 6.34859 9.09095 6.3152 9.0852C6.28604 9.08018 6.25785 9.08019 6.23409 9.08021L6.23044 9.08021C6.20862 9.08021 6.18859 9.08536 6.17809 9.0882C6.16703 9.09118 6.15202 9.09586 6.14357 9.09836C6.12125 9.10495 6.10727 9.10777 6.09714 9.10777H6.06991L6.04601 9.12082L3.41171 10.5595L3.90958 7.52289L3.91099 7.51432V7.50563C3.91099 7.45394 3.90281 7.39546 3.88656 7.34084C3.87078 7.28783 3.84436 7.22824 3.80101 7.18342L3.80101 7.18341L3.80012 7.18251L1.68212 5.04448L4.61264 4.60802C4.75071 4.6051 4.8717 4.53111 4.9164 4.40393L6.23044 1.66143L7.54726 4.40973L7.55474 4.42535L7.56679 4.4378L7.56858 4.43965C7.59436 4.46631 7.63256 4.50581 7.676 4.53847C7.71685 4.56919 7.7766 4.60504 7.84759 4.60793L10.7788 5.04448L8.66076 7.18251L8.65987 7.18342C8.62247 7.22208 8.58812 7.27619 8.56659 7.33408C8.54637 7.38841 8.53262 7.45941 8.55241 7.52964L9.04916 10.5595L6.41487 9.12082Z" fill="#050C42" stroke="#050C42" stroke-width="0.213333"/>
</svg>
